<?xml version="1.0" encoding="UTF-8"?>
<svg width="436px" height="159px" viewBox="0 0 436 159" version="1.1" xmlns="http://www.w3.org/2000/svg" xmlns:xlink="http://www.w3.org/1999/xlink">
    <!-- Generator: Sketch 54 (76480) - https://sketchapp.com -->
    <title>BSG_Logo-RED_BLACK</title>
    <desc>Created with Sketch.</desc>
    <g id="social-media-i-www" stroke="none" stroke-width="1" fill="none" fill-rule="evenodd">
        <g id="techniczny-copy" transform="translate(-627.000000, -44.000000)">
            <g id="BSG_Logo-RED_BLACK" transform="translate(627.000000, 44.000000)">
                <g id="LOGO" transform="translate(218.000000, 79.500000) scale(-1, 1) rotate(-180.000000) translate(-218.000000, -79.500000) ">
                    <path d="M207.581709,126.624993 L202.756979,126.624993 L202.756979,121.224572 L207.581709,121.187379 C209.633435,121.187379 210.833077,122.247379 210.833077,123.898748 C210.833077,125.598467 209.633435,126.624993 207.581709,126.624993 Z M208.063809,115.541485 L202.749505,115.541485 L202.749505,109.404643 L208.063809,109.404643 C210.425722,109.404643 211.976661,110.170818 211.976661,112.476783 C211.976661,114.775309 210.425722,115.541485 208.063809,115.541485 Z M208.314202,132.739519 C214.764616,132.739519 218.632621,130.377765 218.632621,125.308362 C218.632621,122.061414 217.104105,119.919099 214.241407,118.896292 C217.399344,117.988783 219.8659,115.72373 219.8659,111.636222 C219.8659,104.96752 213.434171,103.308713 207.790994,103.308713 L194.979857,103.308713 L194.979857,132.739519 L208.314202,132.739519 Z" id="path22" fill="#000000" fill-rule="nonzero"></path>
                    <polygon id="path26" fill="#000000" points="245.592437 132.739891 245.592437 126.004243 232.112342 126.004243 232.112342 121.518769 244.273204 121.518769 244.273204 114.846348 232.112342 114.846348 232.112342 110.037295 245.835356 110.037295 245.835356 103.309085 224.290375 103.309085 224.290375 132.739891"></polygon>
                    <polygon id="path30" fill="#000000" points="272.847491 132.739891 272.847491 125.818277 264.491104 125.818277 264.491104 103.309085 256.710245 103.309085 256.710245 125.818277 248.327697 125.818277 248.327697 132.739891"></polygon>
                    <polygon id="path34" fill="#000000" points="299.312876 132.739891 299.312876 125.818277 291.020021 125.818277 291.020021 103.309085 283.198051 103.309085 283.198051 125.818277 274.845401 125.818277 274.845401 132.739891"></polygon>
                    <polygon id="path38" fill="#000000" points="323.776238 132.739891 323.776238 126.004243 310.303618 126.004243 310.303618 121.518769 322.468217 121.518769 322.468217 114.846348 310.303618 114.846348 310.303618 110.037295 323.985521 110.037295 323.985521 103.309085 302.444279 103.309085 302.444279 132.739891"></polygon>
                    <path d="M336.914753,119.219127 L341.941292,119.219127 C344.146243,119.219127 345.644861,120.349794 345.644861,122.611127 C345.644861,124.876179 344.146243,126.003127 341.941292,126.003127 L336.914753,126.003127 L336.914753,119.219127 Z M329.111471,103.311689 L329.111471,132.738776 L341.563834,132.738776 C347.547098,132.738776 353.698535,130.600179 353.698535,122.811969 C353.698535,117.943408 351.299251,115.287829 348.014248,113.974916 L356.198725,103.311689 L347.367712,103.311689 L340.334295,112.881443 L336.914753,112.881443 L336.914753,103.311689 L329.111471,103.311689 Z" id="path42" fill="#000000" fill-rule="nonzero"></path>
                    <path d="M205.074419,87.1383206 C208.755565,87.1383206 212.361967,86.2680048 214.966798,84.7802856 L214.966798,77.6429524 C212.477821,79.5211981 209.106862,80.4324261 205.679847,80.3989523 C202.809673,80.3617594 201.931431,79.6253383 201.931431,78.498391 C201.931431,74.6749525 217.298813,75.8725666 217.298813,65.4548125 C217.298813,58.4922862 211.902291,56.4466722 205.444403,56.4466722 C201.195202,56.4466722 197.241239,57.3950933 194.150572,59.1320056 L194.150572,66.5073737 C197.622434,64.1047071 201.490441,63.1823212 204.861399,63.1823212 C207.974489,63.1823212 209.260089,63.6658301 209.260089,65.1237949 C209.260089,69.3898299 193.874019,67.969058 193.874019,78.4649173 C193.874019,84.3711627 199.001463,87.1383206 205.074419,87.1383206" id="path46" fill="#000000"></path>
                    <path d="M235.570377,79.9957804 C230.48778,79.9957804 227.714775,76.4959208 227.714775,71.7910086 C227.714775,67.0823772 230.48778,63.586237 235.570377,63.586237 C240.671661,63.586237 243.396083,67.0823772 243.396083,71.7910086 C243.396083,76.4959208 240.671661,79.9957804 235.570377,79.9957804 M235.570377,87.1368329 C246.135452,87.1368329 251.401173,79.9957804 251.401173,71.7910086 C251.401173,63.586237 246.135452,56.4451845 235.570377,56.4451845 C225.016513,56.4451845 219.747057,63.586237 219.747057,71.7910086 C219.747057,79.9957804 225.016513,87.1368329 235.570377,87.1368329" id="path50" fill="#000000" fill-rule="nonzero"></path>
                    <polygon id="path54" fill="#000000" points="277.097815 86.4826083 277.097815 79.5572752 263.561662 79.5572752 263.561662 74.4915912 275.868275 74.4915912 275.868275 67.5439422 263.561662 67.5439422 263.561662 57.0666793 255.717271 57.0666793 255.717271 86.4826083"></polygon>
                    <polygon id="path58" fill="#000000" points="304.055388 86.4826083 304.055388 79.5572752 295.706473 79.5572752 295.706473 57.0666793 287.940564 57.0666793 287.940564 79.5572752 279.584175 79.5572752 279.584175 86.4826083"></polygon>
                    <polygon id="path62" fill="#000000" points="350.943842 86.4826083 341.940919 57.0666793 333.468677 57.0666793 328.464562 75.2949595 323.396913 57.0666793 314.991942 57.0666793 305.918009 86.4826083 314.405199 86.4826083 319.386892 65.8181879 325.007648 86.4826083 331.880366 86.4826083 337.463748 65.8181879 342.531397 86.4826083"></polygon>
                    <path d="M361.19761,68.006251 L368.817769,68.006251 L365.805583,76.4974086 C365.5664,77.226391 365.301059,77.9553735 365.028244,79.4877244 C364.811485,77.9553735 364.527459,77.226391 364.277065,76.4974086 L361.19761,68.006251 Z M349.1825,57.0677951 L360.842575,86.4837242 L369.266233,86.4837242 L380.866514,57.0677951 L372.876372,57.0677951 L371.160995,61.6983213 L358.936601,61.6983213 L357.243648,57.0677951 L349.1825,57.0677951 Z" id="path66" fill="#000000" fill-rule="nonzero"></path>
                    <path d="M391.611722,72.9804403 L396.604628,72.9804403 C398.802103,72.9804403 400.330619,74.1297034 400.330619,76.3873174 C400.330619,78.6486507 398.802103,79.7755981 396.604628,79.7755981 L391.611722,79.7755981 L391.611722,72.9804403 Z M383.797229,57.0692827 L383.797229,86.4814926 L396.22717,86.4814926 C402.232857,86.4814926 408.384295,84.3726506 408.384295,76.5732823 C408.384295,71.7233174 405.973798,69.0603 402.681321,67.751107 L410.869535,57.0692827 L402.027311,57.0692827 L394.993892,66.6576334 L391.611722,66.6576334 L391.611722,57.0692827 L383.797229,57.0692827 Z" id="path70" fill="#000000" fill-rule="nonzero"></path>
                    <polygon id="path74" fill="#000000" points="435.142301 86.4826083 435.142301 79.7767138 421.662205 79.7767138 421.662205 75.2949595 433.856703 75.2949595 433.856703 68.5853457 421.662205 68.5853457 421.662205 63.8134861 435.359058 63.8134861 435.359058 57.0666793 413.806603 57.0666793 413.806603 86.4826083"></polygon>
                    <path d="M310.212431,44.2719218 C313.101289,44.2719218 316.016308,43.6656761 318.415593,42.4494656 L318.415593,40.1174657 C316.225591,41.393185 313.377843,42.0589393 310.522619,42.0589393 C304.352495,42.0589393 297.902081,38.5479218 297.902081,30.0530448 C297.902081,21.2308696 304.423502,17.9876416 310.649683,17.9876416 C312.84716,17.9876416 315.044636,18.4674312 316.7488,19.263361 L316.7488,30.8192203 L319.148086,30.8192203 L319.148086,17.6566241 C316.603049,16.4776066 313.527331,15.8006943 310.522619,15.8006943 C302.973467,15.8006943 295.52522,19.739431 295.52522,30.0530448 C295.52522,39.7529745 302.902461,44.2719218 310.212431,44.2719218" id="path78" fill="#000000"></path>
                    <path d="M328.168574,29.6528484 L336.581021,29.6528484 C340.247219,29.6528484 344.201179,31.0029536 344.201179,35.6334799 C344.201179,40.2602866 340.247219,41.610392 336.581021,41.610392 L328.168574,41.610392 L328.168574,29.6528484 Z M325.787976,16.2373399 L325.787976,43.868006 L336.439007,43.868006 C341.271212,43.868006 346.563092,41.7926375 346.563092,35.6334799 C346.563092,30.3483571 342.597919,28.0870239 338.576687,27.6109537 L348.454118,16.2373399 L345.524151,16.2373399 L335.852266,27.3877958 L328.086357,27.3877958 L328.086357,16.2373399 L325.787976,16.2373399 Z" id="path82" fill="#000000" fill-rule="nonzero"></path>
                    <path d="M365.153813,42.060055 C357.021657,42.060055 353.082644,36.0310727 353.082644,30.0541607 C353.082644,24.0363362 357.021657,17.9887575 365.153813,17.9887575 C373.300919,17.9887575 377.198822,24.0363362 377.198822,30.0541607 C377.198822,36.0310727 373.300919,42.060055 365.153813,42.060055 M365.153813,44.2730375 C374.821961,44.2730375 379.601845,37.0538798 379.601845,30.0541607 C379.601845,23.0172485 374.821961,15.7980908 365.153813,15.7980908 C355.478192,15.7980908 350.731944,23.0172485 350.731944,30.0541607 C350.731944,37.0538798 355.478192,44.2730375 365.153813,44.2730375" id="path86" fill="#000000" fill-rule="nonzero"></path>
                    <path d="M407.801291,43.8687497 L407.801291,26.1128203 C407.801291,18.3915574 402.602839,15.7992066 396.458877,15.7992066 C390.273805,15.7992066 385.071616,18.3915574 385.071616,26.1128203 L385.071616,43.8687497 L387.422318,43.8687497 L387.422318,26.1872063 C387.422318,20.1396276 391.245477,17.9898732 396.458877,17.9898732 C401.646116,17.9898732 405.454326,20.1396276 405.454326,26.1872063 L405.454326,43.8687497 L407.801291,43.8687497 Z" id="path90" fill="#000000"></path>
                    <path d="M424.357851,41.6096481 L417.488871,41.6096481 L417.488871,28.5251572 L424.357851,28.5251572 C429.347018,28.5251572 433.570059,29.8678239 433.570059,35.0934377 C433.570059,40.2967359 429.410552,41.6096481 424.357851,41.6096481 Z M424.219575,43.867262 C430.539186,43.867262 435.931972,41.8811568 435.931972,35.0934377 C435.931972,28.2685256 430.539186,26.2824204 424.219575,26.2824204 L417.470184,26.2824204 L417.470184,16.2365961 L415.126958,16.2365961 L415.126958,43.867262 L424.219575,43.867262 Z" id="path94" fill="#000000" fill-rule="nonzero"></path>
                    <path d="M144.863205,130.802137 L116.464193,147.118698 L102.991572,154.854838 L194.530646,154.836242 L144.863205,130.802137 Z M195.730288,8.45210505 L99.5383958,63.951472 L144.097079,89.5848749 L195.730288,8.45210505 Z M97.5165685,117.103962 L140.76723,92.255331 L97.5165685,67.4178579 L97.5165685,117.103962 Z M97.5165685,153.385715 L142.781583,127.391541 L142.781583,95.7179976 L97.5165685,121.734488 L97.5165685,153.385715 Z M93.514023,67.4178579 L50.2670989,92.255331 L93.514023,117.11512 L93.514023,67.4178579 Z M7.38642074,72.4537876 L47.0942128,146.173996 L91.4959329,120.562909 L7.38642074,72.4537876 Z M205.19289,157.287259 C204.972394,158.187329 204.16142,158.834487 203.219645,158.834487 L95.5246388,158.841926 C95.5134272,158.841926 95.50969,158.838207 95.5022155,158.838207 C94.3436824,158.838207 93.514023,158.016242 93.514023,156.844663 L93.514023,124.021857 L47.262387,150.6074 C47.2138033,150.618558 47.1951173,150.633435 47.1540079,150.637154 C47.0493664,150.696663 46.9372502,150.745014 46.8400829,150.771049 C46.7653388,150.797084 46.7167552,150.800803 46.6494854,150.823119 C46.548581,150.830558 46.4700997,150.852873 46.3878813,150.852873 C46.3206116,150.860312 46.2271815,150.860312 46.1673862,150.860312 C46.0702189,150.852873 45.9917376,150.830558 45.890833,150.823119 C45.8385122,150.804523 45.7749798,150.800803 45.7263961,150.793365 L45.722659,150.793365 C45.5619592,150.745014 45.4386314,150.689224 45.2966177,150.618558 C45.2891432,150.614838 45.2816688,150.6074 45.2405595,150.6074 C45.2256107,150.577645 45.1845015,150.55161 45.1396551,150.521856 C45.0761226,150.469786 45.0013785,150.413996 44.9079484,150.33961 C44.8668392,150.306137 44.8219928,150.254066 44.7883579,150.201996 C44.7098766,150.138768 44.6463442,150.060663 44.5828117,149.978838 C44.5753373,149.923049 44.5267537,149.878417 44.5192792,149.837505 C44.5080676,149.822628 44.4893816,149.815189 44.4744328,149.815189 L0.528651495,68.180314 C0.113821853,67.3881036 0.233412379,66.4136474 0.902371882,65.8111212 C1.60496622,65.1899983 2.64390893,65.1825598 3.30165683,65.5098579 L46.163649,90.0237521 L200.790463,0.916806994 C201.470634,0.526280688 202.629168,0.671333317 203.219645,1.26270172 C203.884868,1.90614031 203.985772,2.9401052 203.499936,3.71371921 L146.79534,92.8429801 L146.79534,127.2874 L204.097888,155.048242 C204.935022,155.453645 205.39096,156.379751 205.19289,157.287259 Z" id="path98" fill="#F52747" fill-rule="nonzero"></path>
                </g>
            </g>
        </g>
    </g>
</svg>